<svg xmlns="http://www.w3.org/2000/svg" viewBox="0 0 104.8 101.9" class="fill-black dark:fill-white">
    <path d="M51 42.3 28.3 19.7 5.7 42.3 0 36.7 28.3 8.3l28.4 28.4z"/>
    <path d="M51 64.9 28.3 42.3 5.7 64.9 0 59.3l28.3-28.4 28.4 28.4zM76.4 67.8 48.1 39.4l5.7-5.6 22.6 22.6 22.7-22.6 5.7 5.6z"/>
    <path d="M76.4 45.2 48.1 16.8l5.7-5.6 22.6 22.6 22.7-22.6 5.7 5.6zM24.3 0h8v101.9h-8z"/>
    <path d="M72.4 0h8v101.9h-8z"/>
    <path d="m76.4 67.8-28.3-28.4 5.7-5.6 22.6 22.6 22.7-22.6 5.7 5.6z"/>
    <path d="m76.4 45.2-28.3-28.4 5.7-5.6 22.6 22.6 22.7-22.6 5.7 5.6z"/>
    <path d="m24.3 0h8v101.9h-8z"/>
    <path d="m72.4 0h8v101.9h-8z"/>
</svg>