<svg width="50" height="50" viewBox="0 0 50 50" fill="none" xmlns="http://www.w3.org/2000/svg">
<rect width="50" height="50" fill="black"/>
<path d="M6.544 28.128C6.07467 28.128 5.62133 28.0747 5.184 27.968C4.74667 27.8613 4.38667 27.7227 4.104 27.552L4.712 26.176C4.97867 26.3307 5.27467 26.456 5.6 26.552C5.93067 26.6427 6.25067 26.688 6.56 26.688C6.74133 26.688 6.88267 26.6773 6.984 26.656C7.09067 26.6293 7.168 26.5947 7.216 26.552C7.264 26.504 7.288 26.448 7.288 26.384C7.288 26.2827 7.232 26.2027 7.12 26.144C7.008 26.0853 6.85867 26.0373 6.672 26C6.49067 25.9573 6.29067 25.9147 6.072 25.872C5.85333 25.824 5.632 25.7627 5.408 25.688C5.18933 25.6133 4.98667 25.5147 4.8 25.392C4.61867 25.2693 4.472 25.1093 4.36 24.912C4.248 24.7093 4.192 24.4587 4.192 24.16C4.192 23.8133 4.288 23.4987 4.48 23.216C4.67733 22.928 4.968 22.6987 5.352 22.528C5.74133 22.3573 6.224 22.272 6.8 22.272C7.17867 22.272 7.552 22.312 7.92 22.392C8.288 22.472 8.61867 22.5947 8.912 22.76L8.344 24.128C8.06667 23.9893 7.79733 23.8853 7.536 23.816C7.28 23.7467 7.02933 23.712 6.784 23.712C6.60267 23.712 6.45867 23.728 6.352 23.76C6.24533 23.792 6.168 23.8347 6.12 23.888C6.07733 23.9413 6.056 24 6.056 24.064C6.056 24.16 6.112 24.2373 6.224 24.296C6.336 24.3493 6.48267 24.3947 6.664 24.432C6.85067 24.4693 7.05333 24.5093 7.272 24.552C7.496 24.5947 7.71733 24.6533 7.936 24.728C8.15467 24.8027 8.35467 24.9013 8.536 25.024C8.72267 25.1467 8.872 25.3067 8.984 25.504C9.096 25.7013 9.152 25.9467 9.152 26.24C9.152 26.5813 9.05333 26.896 8.856 27.184C8.664 27.4667 8.376 27.696 7.992 27.872C7.608 28.0427 7.12533 28.128 6.544 28.128ZM11.4818 28.08C11.1351 28.08 10.8205 28.0107 10.5378 27.872C10.2605 27.728 10.0418 27.5067 9.88181 27.208C9.72181 26.904 9.64181 26.5147 9.64181 26.04V23.624H11.4498V25.728C11.4498 26.0373 11.5005 26.2533 11.6018 26.376C11.7031 26.4987 11.8418 26.56 12.0178 26.56C12.1245 26.56 12.2231 26.5333 12.3138 26.48C12.4098 26.4213 12.4871 26.328 12.5458 26.2C12.6045 26.0667 12.6338 25.8933 12.6338 25.68V23.624H14.4418V28H12.7218V26.736L13.0658 27.08C12.9111 27.4213 12.6898 27.6747 12.4018 27.84C12.1191 28 11.8125 28.08 11.4818 28.08ZM17.8918 28V27.224L17.7638 27.016V25.544C17.7638 25.3307 17.6971 25.168 17.5638 25.056C17.4358 24.944 17.2251 24.888 16.9318 24.888C16.7344 24.888 16.5344 24.92 16.3318 24.984C16.1291 25.0427 15.9558 25.1253 15.8118 25.232L15.2358 24.04C15.4918 23.88 15.7984 23.7573 16.1558 23.672C16.5131 23.5867 16.8624 23.544 17.2038 23.544C17.9558 23.544 18.5371 23.712 18.9478 24.048C19.3638 24.384 19.5718 24.9173 19.5718 25.648V28H17.8918ZM16.6518 28.08C16.2944 28.08 15.9958 28.0187 15.7558 27.896C15.5158 27.7733 15.3344 27.6107 15.2118 27.408C15.0891 27.2 15.0278 26.9707 15.0278 26.72C15.0278 26.4373 15.0998 26.1973 15.2438 26C15.3878 25.8027 15.6064 25.6533 15.8997 25.552C16.1984 25.4507 16.5744 25.4 17.0278 25.4H17.9398V26.272H17.3158C17.1238 26.272 16.9824 26.304 16.8918 26.368C16.8064 26.4267 16.7638 26.5173 16.7638 26.64C16.7638 26.7413 16.8011 26.8267 16.8758 26.896C16.9558 26.96 17.0624 26.992 17.1957 26.992C17.3184 26.992 17.4304 26.96 17.5318 26.896C17.6384 26.8267 17.7158 26.72 17.7638 26.576L17.9958 27.112C17.9264 27.4373 17.7798 27.68 17.5558 27.84C17.3318 28 17.0304 28.08 16.6518 28.08ZM22.8076 28V22.4H24.6956V26.536H27.2236V28H22.8076ZM30.0011 28.08C29.5051 28.08 29.0651 27.984 28.6811 27.792C28.3024 27.5947 28.0037 27.3253 27.7851 26.984C27.5664 26.6427 27.4571 26.2507 27.4571 25.808C27.4571 25.3653 27.5664 24.9733 27.7851 24.632C28.0037 24.2907 28.3024 24.024 28.6811 23.832C29.0651 23.64 29.5051 23.544 30.0011 23.544C30.4971 23.544 30.9371 23.64 31.3211 23.832C31.7051 24.024 32.0037 24.2907 32.2171 24.632C32.4357 24.9733 32.5451 25.3653 32.5451 25.808C32.5451 26.2507 32.4357 26.6427 32.2171 26.984C32.0037 27.3253 31.7051 27.5947 31.3211 27.792C30.9371 27.984 30.4971 28.08 30.0011 28.08ZM30.0011 26.672C30.1344 26.672 30.2544 26.64 30.3611 26.576C30.4677 26.512 30.5531 26.416 30.6171 26.288C30.6811 26.1547 30.7131 25.9947 30.7131 25.808C30.7131 25.616 30.6811 25.4587 30.6171 25.336C30.5531 25.208 30.4677 25.112 30.3611 25.048C30.2544 24.984 30.1344 24.952 30.0011 24.952C29.8677 24.952 29.7477 24.984 29.6411 25.048C29.5344 25.112 29.4491 25.208 29.3851 25.336C29.3211 25.4587 29.2891 25.616 29.2891 25.808C29.2891 25.9947 29.3211 26.1547 29.3851 26.288C29.4491 26.416 29.5344 26.512 29.6411 26.576C29.7477 26.64 29.8677 26.672 30.0011 26.672ZM35.3349 29.632C34.9029 29.632 34.4976 29.5867 34.1189 29.496C33.7403 29.4053 33.4149 29.2693 33.1429 29.088L33.7509 27.856C33.9216 27.9893 34.1376 28.0933 34.3989 28.168C34.6656 28.248 34.9163 28.288 35.1509 28.288C35.5243 28.288 35.7909 28.208 35.9509 28.048C36.1109 27.8933 36.1909 27.6693 36.1909 27.376V27.008L36.2709 25.648L36.2789 24.288V23.624H37.9989V27.128C37.9989 27.976 37.7643 28.6053 37.2949 29.016C36.8256 29.4267 36.1723 29.632 35.3349 29.632ZM34.9829 27.76C34.6149 27.76 34.2709 27.6747 33.9509 27.504C33.6309 27.328 33.3723 27.0827 33.1749 26.768C32.9776 26.4533 32.8789 26.08 32.8789 25.648C32.8789 25.216 32.9776 24.8427 33.1749 24.528C33.3723 24.2133 33.6309 23.9707 33.9509 23.8C34.2709 23.6293 34.6149 23.544 34.9829 23.544C35.3616 23.544 35.6709 23.6187 35.9109 23.768C36.1563 23.9173 36.3376 24.1493 36.4549 24.464C36.5723 24.7733 36.6309 25.168 36.6309 25.648C36.6309 26.128 36.5723 26.5253 36.4549 26.84C36.3376 27.1493 36.1563 27.3813 35.9109 27.536C35.6709 27.6853 35.3616 27.76 34.9829 27.76ZM35.4629 26.352C35.6069 26.352 35.7349 26.3227 35.8469 26.264C35.9589 26.2053 36.0469 26.1227 36.1109 26.016C36.1749 25.9093 36.2069 25.7867 36.2069 25.648C36.2069 25.504 36.1749 25.3813 36.1109 25.28C36.0469 25.1733 35.9589 25.0933 35.8469 25.04C35.7349 24.9813 35.6069 24.952 35.4629 24.952C35.3243 24.952 35.1963 24.9813 35.0789 25.04C34.9669 25.0933 34.8763 25.1733 34.8069 25.28C34.7429 25.3813 34.7109 25.504 34.7109 25.648C34.7109 25.7867 34.7429 25.9093 34.8069 26.016C34.8763 26.1227 34.9669 26.2053 35.0789 26.264C35.1963 26.3227 35.3243 26.352 35.4629 26.352ZM41.1104 28.08C40.6144 28.08 40.1744 27.984 39.7904 27.792C39.4118 27.5947 39.1131 27.3253 38.8944 26.984C38.6758 26.6427 38.5664 26.2507 38.5664 25.808C38.5664 25.3653 38.6758 24.9733 38.8944 24.632C39.1131 24.2907 39.4118 24.024 39.7904 23.832C40.1744 23.64 40.6144 23.544 41.1104 23.544C41.6064 23.544 42.0464 23.64 42.4304 23.832C42.8144 24.024 43.1131 24.2907 43.3264 24.632C43.5451 24.9733 43.6544 25.3653 43.6544 25.808C43.6544 26.2507 43.5451 26.6427 43.3264 26.984C43.1131 27.3253 42.8144 27.5947 42.4304 27.792C42.0464 27.984 41.6064 28.08 41.1104 28.08ZM41.1104 26.672C41.2438 26.672 41.3638 26.64 41.4704 26.576C41.5771 26.512 41.6624 26.416 41.7264 26.288C41.7904 26.1547 41.8224 25.9947 41.8224 25.808C41.8224 25.616 41.7904 25.4587 41.7264 25.336C41.6624 25.208 41.5771 25.112 41.4704 25.048C41.3638 24.984 41.2438 24.952 41.1104 24.952C40.9771 24.952 40.8571 24.984 40.7504 25.048C40.6438 25.112 40.5584 25.208 40.4944 25.336C40.4304 25.4587 40.3984 25.616 40.3984 25.808C40.3984 25.9947 40.4304 26.1547 40.4944 26.288C40.5584 26.416 40.6438 26.512 40.7504 26.576C40.8571 26.64 40.9771 26.672 41.1104 26.672Z" fill="white"/>
<rect x="42" y="28" width="4" height="4" transform="rotate(-45 42 28)" fill="url(#paint0_linear_12_3)"/>
<defs>
<linearGradient id="paint0_linear_12_3" x1="44" y1="28" x2="44" y2="32" gradientUnits="userSpaceOnUse">
<stop stop-color="#FFD600"/>
<stop offset="0.203125" stop-color="#FF7A00"/>
<stop offset="0.46875" stop-color="#FF0069"/>
<stop offset="0.692708" stop-color="#D300C5"/>
<stop offset="1" stop-color="#7638FA"/>
</linearGradient>
</defs>
</svg>
